<?xml version="1.0" standalone="no"?>
<!DOCTYPE svg PUBLIC "-//W3C//DTD SVG 1.1//EN" "http://www.w3.org/Graphics/SVG/1.1/DTD/svg11.dtd" >
<svg xmlns="http://www.w3.org/2000/svg">
<metadata>Generated by IcoMoon</metadata>
<defs>
<font id="icomoon" horiz-adv-x="1024">
<font-face units-per-em="1024" ascent="960" descent="-64" />
<missing-glyph horiz-adv-x="1024" />
<glyph unicode="&#x20;" horiz-adv-x="512" d="" />
<glyph unicode="&#xe900;" glyph-name="twitter" d="M902.093 748.657c44.503 28.416 77.271 71.875 92.314 122.481-40.888-25.682-86.088-43.878-133.458-53.719-19.108 21.903-42.66 39.465-69.079 51.528-26.409 12.063-55.112 18.35-84.193 18.442-115.999 0-210.033-99.205-210.033-221.583 0-17.336 1.782-34.253 5.335-50.442-174.51 9.298-329.308 97.393-432.988 231.526-18.76-34.161-28.539-72.479-28.416-111.432 0-76.851 37.048-144.66 93.491-184.443-33.556 1.178-66.284 10.701-95.273 27.689v-2.734c0-107.397 72.376-196.946 168.602-217.272-17.623-5.212-36.157-7.813-55.398-7.813-13.527 0-26.726 1.331-39.465 3.871 26.634-87.869 104.284-152.115 196.229-153.784-42.834-35.738-92.508-62.341-146.002-78.090-53.494-15.872-109.681-20.511-165.048-13.722 94.925-64.758 207.145-99.359 322.028-99.492 386.54 0 597.719 337.592 597.719 630.385 0 9.718-0.133 19.272-0.512 28.692 41.4 31.713 76.954 70.574 104.755 114.729-38.083-17.828-78.838-29.573-120.607-34.816z" />
<glyph unicode="&#xe901;" glyph-name="facebook" d="M588.974-62.188h-217.16v512.061h-108.524v176.435h108.524v105.943c0 143.913 61.245 229.56 235.305 229.56h144.865v-176.497h-90.501c-67.758 0-72.294-24.699-72.294-70.636l-0.338-88.371h164.168l-19.251-176.435h-144.794v-512.061z" />
<glyph unicode="&#xe902;" glyph-name="search" d="M1008.108-53.422c-13.507-13.67-36.045-13.67-50.637 0l-237.722 240.108c-75.407-64.881-173.455-104.735-281.549-104.735-239.933 0-434.77 196.833-434.77 439.183s194.847 439.183 434.77 439.183c239.933 0 434.77-196.833 434.77-439.183 0-108.052-39.434-207.043-103.68-284.385l237.711-240.118c14.623-12.503 14.623-35.246 1.106-50.053zM801.997 521.144c0 202.537-162.202 366.377-362.67 366.377-200.499 0-362.67-163.84-362.67-366.377 0-202.506 162.171-366.377 362.67-366.377 199.383 0 362.67 165.018 362.67 366.377z" />
<glyph unicode="&#xe903;" glyph-name="angle-down" d="M513.853 195.502l-512 504.494h1024l-512-504.494z" />
<glyph unicode="&#xe904;" glyph-name="share" d="M799.048 601.887c-98.468 0-178.606 80.118-178.606 178.606s80.138 178.606 178.606 178.606c98.458 0 178.596-80.118 178.596-178.606s-80.138-178.606-178.596-178.606zM799.048 887.665c-59.075 0-107.172-48.067-107.172-107.162s48.097-107.162 107.172-107.162 107.162 48.067 107.162 107.162-48.087 107.162-107.162 107.162zM227.512 268.503c-98.488 0-178.596 80.128-178.596 178.596 0 98.488 80.118 178.606 178.596 178.606 98.488 0 178.606-80.118 178.606-178.606 0-98.468-80.118-178.596-178.606-178.596zM227.512 554.26c-59.095 0-107.162-48.067-107.162-107.162 0-59.075 48.067-107.162 107.162-107.162s107.162 48.087 107.162 107.162c0 59.095-48.067 107.162-107.162 107.162zM799.048-64.901c-98.468 0-178.606 80.138-178.606 178.596 0 98.468 80.138 178.606 178.606 178.606 98.458 0 178.596-80.138 178.596-178.606 0.010-98.458-80.138-178.596-178.596-178.596zM799.048 220.867c-59.075 0-107.172-48.097-107.172-107.172s48.097-107.162 107.172-107.162 107.162 48.087 107.162 107.162-48.087 107.172-107.162 107.172zM676.116 149.893c-6.103 0-12.278 1.577-17.961 4.844l-325.274 189.573c-17.050 9.953-22.815 31.805-12.882 48.876s31.887 22.651 48.845 12.892l325.325-189.583c17.029-9.964 22.794-31.816 12.892-48.886-6.666-11.387-18.627-17.715-30.945-17.715zM350.884 483.308c-12.278 0-24.238 6.349-30.884 17.715-9.933 17.050-4.188 38.912 12.861 48.865l324.844 189.563c17.070 10.004 38.932 4.188 48.845-12.861 9.953-17.050 4.178-38.912-12.841-48.855l-324.854-189.563c-5.642-3.308-11.858-4.864-17.971-4.864z" />
<glyph unicode="&#xe905;" glyph-name="arrow-right" d="M193.608 838.779l390.799-391.66-390.799-391.68 120.32-120.34 511.98 512.020-511.99 511.99-120.31-120.33z" />
<glyph unicode="&#xe906;" glyph-name="arrow-left" d="M832.932 55.439l-390.81 391.68 390.81 391.67-120.279 120.32-512.020-511.99 512.020-512.010 120.279 120.33z" />
<glyph unicode="&#xe907;" glyph-name="star" d="M508.989 920.146l120.863-371.978h391.127l-316.447-229.929 120.883-371.999-316.426 229.919-316.436-229.919 120.873 371.999-316.436 229.929h391.127l120.873 371.978z" />
<glyph unicode="&#xe908;" glyph-name="email" d="M887.767 31.15h-751.555c-75.11 0-136.212 61.102-136.212 136.233v563.661c0 75.1 61.102 136.233 136.212 136.233h751.555c75.131 0 136.233-61.133 136.233-136.233v-563.661c0-75.131-61.102-136.233-136.233-136.233zM136.223 782.725c-28.488 0-51.661-23.173-51.661-51.681v-563.661c0-28.508 23.173-51.681 51.661-51.681h751.555c28.508 0 51.692 23.173 51.692 51.681v563.661c0 28.508-23.183 51.681-51.692 51.681h-751.555zM512.010 359.977c-8.479 0-16.957 2.54-24.248 7.649l-469.719 328.786c-19.128 13.373-23.777 39.741-10.383 58.87 13.353 19.128 39.823 23.747 58.87 10.373l445.481-311.798 445.501 311.798c19.159 13.373 45.466 8.755 58.839-10.373 13.384-19.128 8.745-45.496-10.404-58.87l-469.699-328.786c-7.291-5.11-15.77-7.649-24.238-7.649z" />
<glyph unicode="&#xe909;" glyph-name="call" d="M886.323-61.87c-4.076 0-8.11 0.164-12.196 0.553-151.603 16.456-298.619 68.762-426.056 151.378-117.965 74.936-220.273 177.224-295.465 295.578-82.678 127.601-134.973 275.302-151.050 426.854-1.823 19.681 0.42 38.543 6.543 56.658 6.052 18.002 15.657 34.324 28.529 48.435 12.872 14.080 28.252 25.129 45.67 32.86 17.562 7.731 36.065 11.653 55.112 11.684h141.466c33.608 0 65.26-11.735 90.030-33.024 25.211-21.678 41.605-51.722 46.223-84.582 5.632-42.445 15.964-83.855 30.73-123.464 9.175-24.381 11.162-50.862 5.693-76.493-5.437-25.6-18.063-48.988-36.475-67.604l-36.618-36.639c56.658-89.969 132.844-166.124 222.781-222.781l36.454 36.454c18.719 18.565 42.138 31.201 67.758 36.669 25.518 5.407 52.142 3.43 76.595-5.745 39.547-14.797 81.019-25.078 123.054-30.648 33.475-4.639 63.683-21.32 85.494-46.889 21.821-25.795 33.311-58.378 32.42-91.904v-140.278c0.061-19.108-3.809-37.765-11.489-55.276-7.619-17.449-18.657-32.922-32.86-45.885-13.967-12.82-30.259-22.538-48.425-28.672-14.264-4.813-29-7.24-43.919-7.24zM279.788 877.302h-142.295c-7.178-0.031-14.254-1.516-20.91-4.454-6.574-2.898-12.421-7.117-17.316-12.452-4.833-5.335-8.479-11.52-10.793-18.391-2.345-6.902-3.174-13.998-2.519-21.207 14.612-137.708 62.382-272.579 138.015-389.345 68.782-108.216 162.038-201.503 269.926-270.039 116.664-75.602 250.88-123.382 388.557-138.291l3.86-0.164c5.693 0 11.325 0.942 16.742 2.765 6.676 2.263 13.025 6.021 18.278 10.824 5.407 4.966 9.605 10.834 12.483 17.449 2.929 6.687 4.424 13.701 4.362 21.053v141.527c0.328 13.814-4.035 26.132-12.257 35.901-8.233 9.667-19.712 16.015-32.246 17.725-48.046 6.349-95.713 18.227-141.384 35.287-9.39 3.42-19.395 4.362-29.164 2.212-9.718-2.099-18.565-6.851-25.569-13.814l-59.699-59.699c-13.537-13.527-34.406-16.292-50.924-6.902-124.621 70.799-227.901 174.080-298.732 298.67-9.441 16.599-6.625 37.448 6.871 50.944l59.843 59.863c6.82 6.902 11.602 15.739 13.67 25.457 2.068 9.748 1.321 19.773-2.181 29.051-17.039 45.67-28.908 93.338-35.348 141.773-1.69 12.124-7.895 23.501-17.449 31.703-9.411 8.1-21.422 12.554-33.823 12.554z" />
<glyph unicode="&#xe90a;" glyph-name="map" d="M512-70.871c-7.485 0-14.971 2.161-21.484 6.502-16.507 10.988-404.48 273.326-404.48 591.544 0 113.777 44.319 220.744 124.764 301.189 80.456 80.435 187.423 124.764 301.199 124.764 113.746 0 220.692-44.319 301.158-124.764 80.486-80.456 124.805-187.423 124.805-301.199 0-318.208-387.942-580.547-404.48-591.544-6.502-4.332-13.998-6.492-21.484-6.492zM512 875.684c-93.071 0-180.613-36.26-246.436-102.083s-102.072-153.354-102.072-246.426c0-237.793 269.476-453.642 348.488-511.775 78.981 58.235 348.539 274.442 348.539 511.775 0 93.102-36.25 180.603-102.103 246.426s-153.334 102.083-246.415 102.083zM512 359.373c-92.529 0-167.803 75.274-167.803 167.803 0 92.518 75.274 167.803 167.803 167.803 92.518 0 167.803-75.284 167.803-167.803 0-92.539-75.284-167.803-167.803-167.803zM512 617.523c-49.818 0-90.358-40.54-90.358-90.358s40.54-90.348 90.358-90.348c49.818 0 90.348 40.53 90.348 90.348s-40.53 90.358-90.348 90.358z" />
<glyph unicode="&#xe90b;" glyph-name="youtube" d="M409.61 292.588l265.718 158.505-265.718 158.495v-317zM1001.441 706.232c6.666-24.801 11.284-58.081 14.336-100.332 3.615-42.271 5.11-78.746 5.11-110.418l3.113-44.39c0-115.722-8.223-200.724-22.559-255.171-12.769-47.555-42.445-78.111-88.545-91.331-24.064-6.892-68.106-11.674-135.67-14.776-66.56-3.727-127.508-5.335-183.788-5.335l-81.439-3.174c-214.528 0-348.16 8.499-400.886 23.276-46.080 13.22-75.776 43.776-88.576 91.331-6.666 24.842-11.254 58.112-14.336 100.342-3.246 36.772-4.977 73.605-5.11 110.469l-3.092 44.37c0 115.722 8.192 200.745 22.528 255.14 12.8 47.555 42.496 78.162 88.576 91.361 24.054 6.892 68.086 11.663 135.67 14.807 61.225 3.471 122.501 5.222 183.808 5.284l81.418 3.185c214.559 0 348.17-8.479 400.886-23.276 46.111-13.199 75.786-43.807 88.556-91.361z" />
<glyph unicode="&#xe90c;" glyph-name="linkedin" d="M872.458 78.766h-151.675v235.315c0 56.105-1.055 128.276-78.94 128.276-79.012 0-91.085-61.092-91.085-124.191v-239.329h-151.747v483.748h145.644v-66.109h2.007c14.664 24.658 35.645 44.984 60.989 58.706 25.354 13.793 53.862 20.49 82.77 19.436 153.795 0 182.108-100.157 182.108-230.451l-0.072-265.4zM227.83 628.726c-17.428 0-34.458 5.089-48.906 14.684-14.49 9.574-25.774 23.173-32.44 39.107s-8.417 33.464-5.018 50.36c3.4 16.927 11.776 32.44 24.095 44.657 12.308 12.175 27.986 20.49 45.076 23.859 17.070 3.369 34.755 1.649 50.862-4.946 16.067-6.605 29.839-17.756 39.496-32.113 9.708-14.326 14.858-31.191 14.858-48.415 0-11.459-2.284-22.804-6.697-33.362-4.424-10.598-10.885-20.204-19.077-28.283-8.151-8.12-17.889-14.52-28.549-18.913-10.701-4.393-22.159-6.636-33.7-6.636zM303.698 78.766h-151.88v483.82h151.88v-483.82zM948.101 942.582h-872.55c-19.804 0.225-38.871-7.363-53.033-21.053s-22.282-32.41-22.508-52.019v-867.502c0.225-19.671 8.315-38.41 22.477-52.081 14.193-13.732 33.27-21.32 53.064-21.125h872.55c19.866-0.205 39.014 7.332 53.197 21.064 14.264 13.732 22.385 32.471 22.712 52.142v867.574c-0.328 19.63-8.448 38.349-22.712 52.070-14.254 13.691-33.393 21.258-53.197 20.992z" />
<glyph unicode="&#xe90d;" glyph-name="arrow-top" d="M118.077 130.949l391.67 390.799 391.68-390.799 120.34 120.31-512.020 511.99-511.99-511.99 120.32-120.31z" />
<glyph unicode="&#xe90e;" glyph-name="arrow-arrow" d="M901.437 763.249l-391.66-390.799-391.68 390.799-120.34-120.31 512.020-511.99 511.99 511.99-120.33 120.31z" />
<glyph unicode="&#xe90f;" glyph-name="equity" d="M70.001 103.496c11.796 11.336 23.562 22.682 35.328 34.079 28.211 27.279 56.463 54.559 84.675 81.838 34.365 33.208 68.598 66.273 102.963 99.492 29.42 28.396 58.839 56.852 88.289 85.309 14.418 13.906 29.317 27.597 43.356 41.882 0.236 0.236 0.379 0.348 0.614 0.584-19.825 0-39.67 0-59.484 0 41.933-40.54 83.743-80.865 125.645-121.416 6.021-5.775 11.909-11.448 17.92-17.285 16.077-15.565 43.387-15.565 59.423 0 14.664 14.182 29.307 28.303 44.083 42.578 35.195 34.017 70.554 68.147 105.748 102.164 42.414 40.97 84.879 82.053 127.355 123.023 36.588 35.41 73.39 70.932 109.978 106.342 17.92 17.275 36.055 34.232 53.596 51.753 0.215 0.236 0.481 0.451 0.737 0.696 15.616 15.084 16.691 42.609 0 57.446-16.845 14.868-42.885 16.015-59.484 0-14.653-14.152-29.307-28.324-44.073-42.578-35.205-34.017-70.502-68.147-105.697-102.134-42.465-40.97-84.941-82.084-127.355-123.054-36.618-35.4-73.37-70.912-110.008-106.301-17.889-17.336-36.157-34.13-53.565-51.784-0.246-0.215-0.481-0.43-0.727-0.696 19.814 0 39.639 0 59.423 0-41.912 40.499-83.712 80.906-125.624 121.426-6.011 5.796-11.899 11.469-17.889 17.275-16.097 15.565-43.377 15.565-59.484 0-11.766-11.366-23.532-22.733-35.308-34.13-28.242-27.29-56.453-54.569-84.695-81.848-34.345-33.157-68.577-66.273-102.943-99.492-29.42-28.396-58.87-56.801-88.289-85.258-14.418-13.906-29.184-27.648-43.346-41.933-0.246-0.215-0.379-0.317-0.625-0.543-15.616-15.084-16.681-42.629 0-57.446 16.835-14.95 42.916-16.138 59.464 0.010zM753.070 722.586c25.672 0 51.405 0 76.974 0 40.704 0 81.459 0 122.173 0 9.359 0 18.77 0 28.242 0-14.070 13.588-27.965 27.044-42.035 40.622 0-24.842 0-49.664 0-74.404 0-39.342 0-78.715 0-118.057 0-9.042 0-18.104 0-27.279 0-21.238 19.313-41.533 42.035-40.622 22.835 0.932 41.994 17.9 41.994 40.622 0 24.852 0 49.695 0 74.404 0 39.342 0 78.715 0 118.047 0 9.073 0 18.115 0 27.279 0 21.934-19.149 40.622-41.994 40.622-25.733 0-51.405 0-77.015 0-40.714 0-81.469 0-122.122 0-9.411 0-18.78 0-28.242 0-22.036 0-43.008-18.698-42.045-40.622 1.055-21.914 18.493-40.612 42.035-40.612z" />
<glyph unicode="&#xe910;" glyph-name="close" d="M971.11-60.436c-13.885 0-27.894 5.335-38.574 15.923l-914.575 908.749c-21.422 21.268-21.535 55.941-0.215 77.373 21.371 21.371 55.941 21.535 77.373 0.215l914.565-908.749c21.381-21.258 21.586-55.89 0.215-77.373-10.68-10.803-24.678-16.138-38.789-16.138zM56.545-60.436c-14.049 0-28.109 5.335-38.789 16.128-21.32 21.484-21.217 56.105 0.215 77.373l914.575 908.749c21.576 21.422 56.207 21.105 77.373-0.215 21.371-21.422 21.156-56.105-0.215-77.373l-914.575-908.749c-10.691-10.578-24.637-15.913-38.584-15.913z" />
<glyph unicode="&#xe911;" glyph-name="whatsapp" d="M9.216-54.784l70.656 258.048c-44.032 75.776-66.56 160.768-66.56 248.832 0 274.432 224.256 497.664 500.736 497.664 134.144 0 259.072-52.224 354.304-146.432 94.208-94.208 146.432-219.136 146.432-352.256 0-274.432-224.256-497.664-500.736-497.664 0 0 0 0 0 0v0c-83.968 0-165.888 20.48-239.616 60.416l-265.216-68.608zM286.72 104.96l15.36-9.216c63.488-37.888 137.216-57.344 211.968-57.344v0c229.376 0 415.744 185.344 415.744 413.696 0 110.592-43.008 215.040-121.856 292.864-77.824 77.824-182.272 121.856-293.888 121.856-229.376 0-415.744-186.368-415.744-414.72 0-77.824 21.504-154.624 63.488-220.16l10.24-15.36-41.984-152.576 156.672 40.96zM389.12 660.992c-9.216 20.48-19.456 21.504-27.648 21.504-7.168 0-15.36 0-23.552 0s-21.504-3.072-33.792-15.36c-11.264-12.288-44.032-43.008-44.032-103.424 0-61.44 45.056-120.832 51.2-129.024s86.016-138.24 214.016-188.416c105.472-40.96 126.976-32.768 150.528-30.72 22.528 2.048 73.728 29.696 83.968 59.392 10.24 28.672 10.24 54.272 7.168 59.392s-11.264 8.192-23.552 14.336c-12.288 6.144-73.728 36.864-84.992 40.96s-19.456 6.144-27.648-6.144c-8.192-12.288-32.768-40.96-39.936-49.152s-14.336-9.216-26.624-3.072c-12.288 6.144-53.248 19.456-100.352 61.44-36.864 32.768-62.464 73.728-69.632 86.016s-1.024 19.456 5.12 25.6c5.12 5.12 12.288 14.336 18.432 21.504s8.192 12.288 12.288 20.48c4.096 8.192 2.048 15.36-1.024 21.504-4.096 7.168-28.672 68.608-39.936 93.184z" />
<glyph unicode="&#xe912;" glyph-name="binocular" d="M964.69 517.335c-5.632 5.12-11.735 10.025-18.053 14.766l-86.047 68.352c-33.157 22.057-72.663 36.014-115.497 38.738l4.649-4.311-52.347 49.193h-0.43c-14.51 12.37-34.007 20.050-55.214 20.050-36.557 0-67.42-22.19-77.906-53.074-10.537 6.267-22.702 10.025-35.922 10.793-2.14 0.215-4.403 0.215-6.543 0.215-14.93 0-28.754-4.137-40.53-11.008-10.67 30.679-41.564 52.91-77.906 52.91-21.207 0-40.53-7.506-55.214-20.050h-0.43l-47.657-44.882c-42.885-2.775-82.565-16.937-115.548-38.738l-86.098-68.393c-6.267-4.516-12.37-9.431-18.043-14.725-43.049-38.953-69.724-93.44-69.724-153.764 0-117.975 102.482-213.934 228.485-213.934 116.347 0 212.736 82.002 226.601 187.556 16.814-9.052 36.352-14.131 56.914-14.131 20.777 0 40.11 5.12 56.924 14.131 14.080-105.39 110.254-187.351 226.56-187.351 126.044 0 228.516 95.908 228.516 213.883 0.225 60.375-26.44 114.862-69.54 153.774v0zM233.257 211.067c-86.702 0-156.928 65.495-156.928 146.391s70.226 146.35 156.928 146.35c86.692 0 156.887-65.454 156.887-146.35 0.215-80.681-70.185-146.34-156.887-146.34v-0.051zM522.24 380.59c-27.31 0-49.531 20.695-49.531 46.213 0 25.508 22.19 46.203 49.531 46.203 27.3 0 49.531-20.695 49.531-46.203 0-25.528-22.18-46.213-49.531-46.213zM811.274 211.067c-86.702 0-156.887 65.495-156.887 146.391s70.185 146.35 156.887 146.35c86.692 0 156.918-65.454 156.918-146.35 0-80.681-70.226-146.34-156.918-146.34v-0.051z" />
<glyph unicode="&#xe913;" glyph-name="caret-down" d="M1023.846 884.644h-1024l512-877.722 512 877.722z" />
<glyph unicode="&#xe914;" glyph-name="caret-top" d="M-0.154 6.922h1024l-512 877.711-512-877.711z" />
<glyph unicode="&#xe915;" glyph-name="calander" horiz-adv-x="884" d="M744.727-59.345h-605.091c-79.127 0-139.636 60.509-139.636 139.636v605.091c0 79.127 60.509 139.636 139.636 139.636h605.091c79.127 0 139.636-60.509 139.636-139.636v-605.091c0-79.127-60.509-139.636-139.636-139.636zM139.636 778.473c-51.2 0-93.091-41.891-93.091-93.091v-605.091c0-51.2 41.891-93.091 93.091-93.091h605.091c51.2 0 93.091 41.891 93.091 93.091v605.091c0 51.2-41.891 93.091-93.091 93.091h-605.091zM325.818 313.018h-46.545c-27.927 0-46.545 18.618-46.545 46.545s18.618 46.545 46.545 46.545h46.545c27.927 0 46.545-18.618 46.545-46.545s-18.618-46.545-46.545-46.545zM279.273 382.836v-23.273c0 0 0 0 0 0v23.273zM325.818 126.836h-46.545c-27.927 0-46.545 18.618-46.545 46.545s18.618 46.545 46.545 46.545h46.545c27.927 0 46.545-18.618 46.545-46.545s-18.618-46.545-46.545-46.545zM279.273 196.655v-23.273c0 0 0 0 0 0v23.273zM605.091 313.018h-46.545c-27.927 0-46.545 18.618-46.545 46.545s18.618 46.545 46.545 46.545h46.545c27.927 0 46.545-18.618 46.545-46.545s-18.618-46.545-46.545-46.545zM558.545 382.836v0zM605.091 126.836h-46.545c-27.927 0-46.545 18.618-46.545 46.545s18.618 46.545 46.545 46.545h46.545c27.927 0 46.545-18.618 46.545-46.545s-18.618-46.545-46.545-46.545zM558.545 196.655v0zM861.091 545.745h-837.818c-13.964 0-23.273 9.309-23.273 23.273s9.309 23.273 23.273 23.273h837.818c13.964 0 23.273-9.309 23.273-23.273s-9.309-23.273-23.273-23.273zM256 685.382c-13.964 0-23.273 9.309-23.273 23.273v186.182c0 13.964 9.309 23.273 23.273 23.273s23.273-13.964 23.273-23.273v-186.182c0-13.964-9.309-23.273-23.273-23.273zM628.364 685.382c-13.964 0-23.273 9.309-23.273 23.273v186.182c0 13.964 9.309 23.273 23.273 23.273s23.273-13.964 23.273-23.273v-186.182c0-13.964-9.309-23.273-23.273-23.273z" />
<glyph unicode="&#xe916;" glyph-name="alert" horiz-adv-x="1040" d="M1016.123 85.662l-433.231 748.308c-31.508 70.892-94.523 70.892-133.908 0l-433.231-756.185c-39.385-63.015-7.877-118.154 70.892-118.154h866.462c70.892 7.877 102.4 63.015 63.015 126.031zM559.262 597.662v-346.585h-86.646v346.585h86.646zM519.877 69.908c-39.385 0-70.892 31.508-70.892 70.892s31.508 70.892 70.892 70.892c39.385 0 70.892-31.508 70.892-70.892s-31.508-70.892-70.892-70.892z" />
<glyph unicode="&#xe917;" glyph-name="filter" horiz-adv-x="1092" d="M641.707 4.267c-6.827 0-13.653 0-20.48 6.827l-177.493 88.747c-20.48 6.827-27.307 27.307-27.307 47.787v273.067l-348.16 409.6c-13.653 13.653-13.653 34.133-6.827 54.613 6.827 13.653 27.307 27.307 47.787 27.307h894.293c20.48 0 40.96-13.653 47.787-27.307 6.827-20.48 6.827-40.96-6.827-54.613l-348.16-409.6v-361.813c0-20.48-6.827-34.133-27.307-40.96-6.827-13.653-13.653-13.653-27.307-13.653zM518.827 174.933l75.093-34.133v300.373c0 13.653 6.827 20.48 13.653 34.133l286.72 341.333h-675.84l286.72-341.333c6.827-6.827 13.653-20.48 13.653-34.133v-266.24z" />
<glyph unicode="&#xe918;" glyph-name="sort" horiz-adv-x="896" d="M428.8 652.8c-12.8 0-25.6 6.4-32 12.8l-147.2 147.2-147.2-140.8c-19.2-19.2-51.2-19.2-70.4 0s-19.2 51.2 0 70.4l179.2 179.2c19.2 19.2 51.2 19.2 70.4 0l179.2-179.2c19.2-19.2 19.2-51.2 0-70.4-6.4-12.8-19.2-19.2-32-19.2zM608-32c-12.8 0-25.6 6.4-32 12.8l-179.2 179.2c-19.2 19.2-19.2 51.2 0 70.4s51.2 19.2 70.4 0l147.2-147.2 147.2 147.2c19.2 19.2 51.2 19.2 70.4 0s19.2-51.2 0-70.4l-192-179.2c-6.4-6.4-19.2-12.8-32-12.8zM249.6 204.8c-25.6 0-51.2 19.2-51.2 51.2v627.2c0 25.6 19.2 51.2 51.2 51.2s51.2-19.2 51.2-51.2v-627.2c-6.4-25.6-25.6-51.2-51.2-51.2zM608-32c-25.6 0-51.2 19.2-51.2 51.2v627.2c0 25.6 19.2 51.2 51.2 51.2s51.2-19.2 51.2-51.2v-627.2c-6.4-32-25.6-51.2-51.2-51.2z" />
<glyph unicode="&#xe919;" glyph-name="angle-up" d="M530.985 697.682l512-504.504h-1024l512 504.504z" />
<glyph unicode="&#xe91a;" glyph-name="plus" d="M435.2 422.4v-435.2h102.4v435.2h435.2v102.4h-435.2v435.2h-102.4v-435.2h-435.2v-102.4h435.2z" />
<glyph unicode="&#xe91b;" glyph-name="watch" d="M138.971 777.143c-7.314 0-21.943 7.314-29.257 14.629-14.629 14.629-7.314 36.571 0 51.2 58.514 51.2 131.657 87.771 226.743 117.029 21.943 7.314 36.571-7.314 43.886-21.943 7.314-29.257 0-51.2-21.943-58.514-80.457-21.943-146.286-58.514-197.486-95.086-7.314-7.314-14.629-7.314-21.943-7.314zM885.029 777.143c-7.314 0-14.629 0-21.943 7.314-51.2 43.886-117.029 73.143-197.486 95.086-14.629 7.314-21.943 29.257-21.943 43.886 7.314 14.629 21.943 29.257 43.886 21.943 80.457-21.943 160.914-58.514 219.429-109.714 14.629-14.629 14.629-29.257 7.314-51.2-7.314 0-21.943-7.314-29.257-7.314zM512-56.686c-241.371 0-438.857 190.171-438.857 416.914 0 234.057 197.486 424.229 438.857 424.229s438.857-190.171 438.857-416.914c0-234.057-197.486-424.229-438.857-424.229zM512 718.629c-204.8 0-365.714-160.914-365.714-351.086s168.229-351.086 365.714-351.086c204.8 0 365.714 160.914 365.714 351.086s-160.914 351.086-365.714 351.086zM512 250.514c-7.314 0-14.629 0-21.943 7.314l-190.171 168.229c-14.629 14.629-14.629 36.571 0 51.2s36.571 14.629 51.2 0l168.229-146.286 153.6 102.4c14.629 7.314 36.571 7.314 43.886-7.314s7.314-36.571-7.314-43.886l-175.543-124.343c-7.314-7.314-14.629-7.314-21.943-7.314z" />
<glyph unicode="&#xe91c;" glyph-name="edit" d="M887.467-55.467h-819.2c-17.067 0-25.6 8.533-42.667 17.067s-17.067 25.6-17.067 42.667v819.2c0 17.067 8.533 25.6 17.067 42.667s25.6 8.533 42.667 8.533h409.6c8.533 0 25.6 0 34.133-17.067 8.533-8.533 17.067-25.6 17.067-42.667s-8.533-25.6-17.067-34.133c-8.533-8.533-25.6-17.067-34.133-17.067h-358.4v-708.267h708.267v358.4c0 17.067 8.533 25.6 17.067 42.667 8.533 8.533 25.6 17.067 42.667 17.067s25.6-8.533 42.667-17.067c8.533-17.067 8.533-34.133 8.533-42.667v-409.6c0-17.067-8.533-25.6-17.067-42.667-8.533-8.533-25.6-17.067-34.133-17.067zM366.933 243.2l162.133 17.067c8.533 0 25.6 8.533 34.133 17.067l401.067 409.6c17.067 17.067 25.6 34.133 34.133 51.2 17.067 17.067 25.6 34.133 25.6 59.733 0 17.067 0 42.667-8.533 59.733s-17.067 34.133-34.133 51.2c-17.067 17.067-34.133 25.6-51.2 34.133-25.6 8.533-51.2 17.067-68.267 17.067-25.6 0-42.667-8.533-59.733-17.067-25.6-8.533-42.667-17.067-51.2-34.133l-409.6-409.6c-8.533-8.533-8.533-17.067-17.067-34.133l-17.067-162.133c0-8.533 0-17.067 0-25.6s8.533-17.067 8.533-17.067 17.067-8.533 25.6-8.533c8.533-8.533 17.067-8.533 25.6-8.533v0zM827.733 823.467c8.533 8.533 17.067 8.533 34.133 8.533 8.533 0 25.6-8.533 34.133-8.533 0 0 8.533-8.533 8.533-17.067s0-8.533 0-17.067 0-8.533 0-17.067-8.533-8.533-8.533-17.067l-392.533-384-76.8-8.533 8.533 68.267 392.533 392.533z" />
</font>
</defs>
</svg>
